<svg width="507" height="342" viewBox="0 0 507 342" fill="none" xmlns="http://www.w3.org/2000/svg">
<path d="M5 160H161.47V243.5H5V160ZM161.47 150H5V70H161.47V150ZM171.47 243.5V160H333.253V243.5H171.47ZM333.253 150H171.47V70H333.253V150ZM343.253 243.5V160H502V243.5H343.253ZM502 150H343.253V70H502V150ZM343.253 253.5H502V327C502 332.523 497.523 337 492 337H343.253V253.5ZM333.253 253.5V337H171.47V253.5H333.253ZM161.47 253.5V337H15C9.47715 337 5 332.523 5 327V253.5H161.47Z" stroke="black" stroke-width="10"/>
<rect width="507" height="76" rx="15" fill="black"/>
</svg>
